<?xml version="1.0" encoding="UTF-8"?>
<!DOCTYPE svg PUBLIC "-//W3C//DTD SVG 1.1//EN" "http://www.w3.org/Graphics/SVG/1.1/DTD/svg11.dtd">
<svg xmlns="http://www.w3.org/2000/svg" version="1.1" width="484px" height="484px" style="shape-rendering:geometricPrecision; text-rendering:geometricPrecision; image-rendering:optimizeQuality; fill-rule:evenodd; clip-rule:evenodd" xmlns:xlink="http://www.w3.org/1999/xlink">
<g><path style="opacity:1" fill="#fefefe" d="M -0.5,-0.5 C 160.833,-0.5 322.167,-0.5 483.5,-0.5C 483.5,160.833 483.5,322.167 483.5,483.5C 322.167,483.5 160.833,483.5 -0.5,483.5C -0.5,322.167 -0.5,160.833 -0.5,-0.5 Z"/></g>
<g><path style="opacity:1" fill="#1e0a0a" d="M 241.5,51.5 C 240.833,55.8333 240.167,60.1667 239.5,64.5C 237.271,68.0549 234.604,68.3882 231.5,65.5C 230.786,59.677 231.119,53.8437 232.5,48C 232.695,40.6883 230.528,34.1883 226,28.5C 216.342,43.9662 209.509,60.6328 205.5,78.5C 203.75,79.6594 202.75,81.326 202.5,83.5C 201.542,83.9528 200.708,84.6195 200,85.5C 199.292,84.6195 198.458,83.9528 197.5,83.5C 197.167,83.5 196.833,83.5 196.5,83.5C 194.861,82.5275 193.527,81.1942 192.5,79.5C 192.768,62.862 198.268,48.1953 209,35.5C 214.198,29.967 219.698,24.8004 225.5,20C 227.134,19.5065 228.801,19.3398 230.5,19.5C 236.17,29.5124 239.837,40.1791 241.5,51.5 Z"/></g>
<g><path style="opacity:1" fill="#f6e2e2" d="M 231.5,65.5 C 222.868,69.8162 214.201,74.1496 205.5,78.5C 209.509,60.6328 216.342,43.9662 226,28.5C 230.528,34.1883 232.695,40.6883 232.5,48C 231.119,53.8437 230.786,59.677 231.5,65.5 Z"/></g>
<g><path style="opacity:1" fill="#1f0b0b" d="M 275.5,79.5 C 273.469,78.4613 272.136,76.7946 271.5,74.5C 277.6,65.0967 280.1,54.7634 279,43.5C 272.183,49.4717 266.35,56.1384 261.5,63.5C 257.869,59.6901 253.869,56.3568 249.5,53.5C 257.012,48.1632 264.679,42.9966 272.5,38C 275.298,36.0863 278.298,35.0863 281.5,35C 283.487,36.3189 284.654,38.1523 285,40.5C 285.958,54.5551 282.791,67.5551 275.5,79.5 Z"/></g>
<g><path style="opacity:1" fill="#f5e0e0" d="M 271.5,74.5 C 270.883,74.6107 270.383,74.944 270,75.5C 267.311,71.3249 264.477,67.3249 261.5,63.5C 266.35,56.1384 272.183,49.4717 279,43.5C 280.1,54.7634 277.6,65.0967 271.5,74.5 Z"/></g>
<g><path style="opacity:1" fill="#e5c2c2" d="M 241.5,51.5 C 243.993,52.7736 246.659,53.4403 249.5,53.5C 253.869,56.3568 257.869,59.6901 261.5,63.5C 264.477,67.3249 267.311,71.3249 270,75.5C 270.383,74.944 270.883,74.6107 271.5,74.5C 272.136,76.7946 273.469,78.4613 275.5,79.5C 277.046,87.2872 276.546,94.9539 274,102.5C 273.623,103.942 272.79,104.942 271.5,105.5C 271.648,93.422 267.815,91.7553 260,100.5C 259.517,101.448 259.351,102.448 259.5,103.5C 256.777,94.1201 258.777,85.7868 265.5,78.5C 260.06,69.0595 252.393,62.0595 242.5,57.5C 242.167,57.6667 241.833,57.8333 241.5,58C 256.562,74.6913 255.562,90.358 238.5,105C 223.346,112.286 211.18,108.786 202,94.5C 199.928,91.0288 198.428,87.3621 197.5,83.5C 198.458,83.9528 199.292,84.6195 200,85.5C 200.708,84.6195 201.542,83.9528 202.5,83.5C 205.816,90.3261 210.482,96.1594 216.5,101C 221.348,103.789 226.348,104.122 231.5,102C 232.756,101.583 233.423,100.75 233.5,99.5C 236.331,98.9213 238.664,97.588 240.5,95.5C 244.239,91.7332 245.905,87.3999 245.5,82.5C 245.5,81.5 245.5,80.5 245.5,79.5C 246.097,79.2648 246.43,78.7648 246.5,78C 245.052,72.9351 242.719,68.4351 239.5,64.5C 240.167,60.1667 240.833,55.8333 241.5,51.5 Z"/></g>
<g><path style="opacity:1" fill="#f8e4e4" d="M 259.5,103.5 C 259.709,104.922 260.209,106.255 261,107.5C 263.5,109.333 266,111.167 268.5,113C 265.445,117.838 266.112,122.004 270.5,125.5C 257.068,126.621 246.402,121.455 238.5,110C 236.075,109.014 234.409,109.681 233.5,112C 237.742,119.408 243.742,124.908 251.5,128.5C 248.528,130.306 245.695,132.306 243,134.5C 238.569,142.031 235.235,150.031 233,158.5C 227.047,150.212 220.714,142.212 214,134.5C 209.622,130.065 204.788,126.232 199.5,123C 196.031,117.599 191.365,113.599 185.5,111C 187.833,108 190.167,105 192.5,102C 194.715,100.956 197.048,100.29 199.5,100C 201.525,98.806 201.859,97.306 200.5,95.5C 193.789,94.6447 188.455,91.4781 184.5,86C 188.796,85.9244 192.796,85.0911 196.5,83.5C 196.833,83.5 197.167,83.5 197.5,83.5C 198.428,87.3621 199.928,91.0288 202,94.5C 211.18,108.786 223.346,112.286 238.5,105C 255.562,90.358 256.562,74.6913 241.5,58C 241.833,57.8333 242.167,57.6667 242.5,57.5C 252.393,62.0595 260.06,69.0595 265.5,78.5C 258.777,85.7868 256.777,94.1201 259.5,103.5 Z"/></g>
<g><path style="opacity:1" fill="#e0aaaa" d="M 239.5,64.5 C 242.719,68.4351 245.052,72.9351 246.5,78C 246.43,78.7648 246.097,79.2648 245.5,79.5C 243.399,73.8896 239.399,71.3896 233.5,72C 231.169,74.7902 231.336,77.6235 234,80.5C 237.462,84.7164 241.295,85.383 245.5,82.5C 245.905,87.3999 244.239,91.7332 240.5,95.5C 240.617,88.7142 237.283,85.8809 230.5,87C 228.496,89.8408 227.996,93.0074 229,96.5C 230.129,98.1412 231.629,99.1412 233.5,99.5C 233.423,100.75 232.756,101.583 231.5,102C 226.348,104.122 221.348,103.789 216.5,101C 210.482,96.1594 205.816,90.3261 202.5,83.5C 202.75,81.326 203.75,79.6594 205.5,78.5C 214.201,74.1496 222.868,69.8162 231.5,65.5C 234.604,68.3882 237.271,68.0549 239.5,64.5 Z"/></g>
<g><path style="opacity:1" fill="#fbe6e6" d="M 245.5,79.5 C 245.5,80.5 245.5,81.5 245.5,82.5C 241.295,85.383 237.462,84.7164 234,80.5C 231.336,77.6235 231.169,74.7902 233.5,72C 239.399,71.3896 243.399,73.8896 245.5,79.5 Z"/></g>
<g><path style="opacity:1" fill="#e4c1c1" d="M 192.5,79.5 C 193.527,81.1942 194.861,82.5275 196.5,83.5C 192.796,85.0911 188.796,85.9244 184.5,86C 188.455,91.4781 193.789,94.6447 200.5,95.5C 201.859,97.306 201.525,98.806 199.5,100C 197.048,100.29 194.715,100.956 192.5,102C 190.167,105 187.833,108 185.5,111C 191.365,113.599 196.031,117.599 199.5,123C 204.788,126.232 209.622,130.065 214,134.5C 220.714,142.212 227.047,150.212 233,158.5C 235.235,150.031 238.569,142.031 243,134.5C 245.695,132.306 248.528,130.306 251.5,128.5C 243.742,124.908 237.742,119.408 233.5,112C 234.409,109.681 236.075,109.014 238.5,110C 246.402,121.455 257.068,126.621 270.5,125.5C 272.372,127.604 274.705,128.937 277.5,129.5C 272.311,132.318 266.811,132.984 261,131.5C 255.789,132.611 251.456,135.278 248,139.5C 247.517,140.448 247.351,141.448 247.5,142.5C 245.937,143.945 244.604,145.611 243.5,147.5C 240.782,150.952 239.115,154.952 238.5,159.5C 234.935,160.787 231.268,160.787 227.5,159.5C 224.833,156.5 222.167,153.5 219.5,150.5C 214.495,139.831 206.828,131.831 196.5,126.5C 195.09,121.725 192.09,120.392 187.5,122.5C 187.714,120.856 187.38,119.356 186.5,118C 183.986,116.748 181.32,116.248 178.5,116.5C 179.957,109.256 183.29,102.923 188.5,97.5C 180.85,92.5304 176.517,85.5304 175.5,76.5C 178.425,76.4598 181.091,77.2932 183.5,79C 186.482,79.498 189.482,79.6646 192.5,79.5 Z"/></g>
<g><path style="opacity:1" fill="#1e0908" d="M 240.5,95.5 C 238.664,97.588 236.331,98.9213 233.5,99.5C 231.629,99.1412 230.129,98.1412 229,96.5C 227.996,93.0074 228.496,89.8408 230.5,87C 237.283,85.8809 240.617,88.7142 240.5,95.5 Z"/></g>
<g><path style="opacity:1" fill="#1f0b0b" d="M 271.5,105.5 C 271.47,106.497 271.97,107.164 273,107.5C 294.69,110.563 296.19,117.896 277.5,129.5C 274.705,128.937 272.372,127.604 270.5,125.5C 266.112,122.004 265.445,117.838 268.5,113C 266,111.167 263.5,109.333 261,107.5C 260.209,106.255 259.709,104.922 259.5,103.5C 259.351,102.448 259.517,101.448 260,100.5C 267.815,91.7553 271.648,93.422 271.5,105.5 Z"/></g>
<g><path style="opacity:1" fill="#1d0707" d="M 177.5,138.5 C 170.838,145.329 164.338,152.329 158,159.5C 152.064,167.582 150.064,176.582 152,186.5C 153.806,195.112 156.473,203.445 160,211.5C 162.106,222.408 162.773,233.408 162,244.5C 160.869,258.177 159.702,271.844 158.5,285.5C 141.388,288.909 124.055,291.909 106.5,294.5C 103.551,293.698 100.551,293.364 97.5,293.5C 83.0876,285.042 74.921,272.375 73,255.5C 72.3333,244.833 72.3333,234.167 73,223.5C 76.3578,210.265 79.1912,196.931 81.5,183.5C 81.8333,181.5 82.1667,179.5 82.5,177.5C 88.1737,149.487 77.007,133.153 49,128.5C 48.3333,127.167 48.3333,125.833 49,124.5C 54.3288,118.75 60.8288,114.916 68.5,113C 92.2506,104.925 115.584,105.925 138.5,116C 151.555,123.523 164.555,131.023 177.5,138.5 Z"/></g>
<g><path style="opacity:1" fill="#501414" d="M 196.5,126.5 C 196.19,127.738 195.69,127.738 195,126.5C 194.598,127.872 194.098,129.205 193.5,130.5C 196.28,131.973 199.113,133.307 202,134.5C 201.799,137.777 201.632,141.111 201.5,144.5C 201.167,144.5 200.833,144.5 200.5,144.5C 195.107,144.25 191.941,141.583 191,136.5C 190.338,137.984 189.504,139.317 188.5,140.5C 186.706,142.797 184.706,144.963 182.5,147C 184.114,149.127 186.114,150.627 188.5,151.5C 192.003,153.753 195.67,155.753 199.5,157.5C 202.898,158.299 206.231,159.299 209.5,160.5C 212.833,160.5 216.167,160.5 219.5,160.5C 222.385,160.806 225.052,160.473 227.5,159.5C 231.268,160.787 234.935,160.787 238.5,159.5C 245.765,158.526 247.431,154.526 243.5,147.5C 244.604,145.611 245.937,143.945 247.5,142.5C 248.045,144.593 248.878,146.593 250,148.5C 258.964,155.795 267.63,163.462 276,171.5C 278.845,176.201 281.012,181.201 282.5,186.5C 281.527,188.139 280.194,189.473 278.5,190.5C 277.182,185.721 275.182,181.221 272.5,177C 269.232,176.62 266.232,177.454 263.5,179.5C 261.906,176.015 261.24,172.348 261.5,168.5C 262.573,167.749 262.74,166.749 262,165.5C 260.008,164.335 258.175,163.002 256.5,161.5C 254.849,160.03 253.015,158.697 251,157.5C 249.258,160.746 246.758,163.079 243.5,164.5C 242.624,164.369 241.957,164.702 241.5,165.5C 242.393,168.084 242.726,170.751 242.5,173.5C 243.5,173.5 244.5,173.5 245.5,173.5C 249.112,172.578 252.779,171.911 256.5,171.5C 256.665,174.85 256.498,178.183 256,181.5C 253.003,182.866 249.836,183.533 246.5,183.5C 245.5,183.5 244.5,183.5 243.5,183.5C 243.5,184.5 243.5,185.5 243.5,186.5C 243.802,194.918 243.469,203.252 242.5,211.5C 240.046,213.06 237.38,214.06 234.5,214.5C 234.5,210.833 234.5,207.167 234.5,203.5C 236.31,200.855 237.31,197.855 237.5,194.5C 236.167,194.5 234.833,194.5 233.5,194.5C 233.021,190.566 233.688,186.899 235.5,183.5C 234.479,182.099 233.479,180.765 232.5,179.5C 232.003,175.241 232.669,171.241 234.5,167.5C 213.685,169.469 194.685,164.469 177.5,152.5C 175.179,153.563 174.179,155.063 174.5,157C 181.512,158.091 187.678,160.924 193,165.5C 197.196,164.911 201.362,165.411 205.5,167C 206.456,170.394 206.789,173.894 206.5,177.5C 206.167,180.167 205.833,182.833 205.5,185.5C 208.433,191.034 211.1,196.7 213.5,202.5C 217.393,203.815 221.393,204.482 225.5,204.5C 225.5,209.167 225.5,213.833 225.5,218.5C 220.321,219.154 217.655,222.154 217.5,227.5C 214.065,235.381 213.732,243.381 216.5,251.5C 217.183,251.137 217.85,250.804 218.5,250.5C 218.595,252.786 219.262,254.786 220.5,256.5C 220.762,259.252 220.762,262.252 220.5,265.5C 219.833,265.5 219.5,265.833 219.5,266.5C 216.167,266.5 212.833,266.5 209.5,266.5C 209.575,263.794 209.908,261.127 210.5,258.5C 208.473,258.662 206.473,258.495 204.5,258C 199.319,253.319 193.985,248.819 188.5,244.5C 186.858,243.197 185.191,241.864 183.5,240.5C 178.171,235.003 173.004,229.336 168,223.5C 167.737,227.835 167.903,232.168 168.5,236.5C 167.64,240.434 167.307,244.434 167.5,248.5C 168.5,248.5 169.5,248.5 170.5,248.5C 173.725,249.807 177.059,250.807 180.5,251.5C 180.167,254.833 179.833,258.167 179.5,261.5C 176.097,261.149 172.763,260.482 169.5,259.5C 167.547,258.095 166.547,258.761 166.5,261.5C 165.498,268.857 164.498,276.19 163.5,283.5C 161.972,284.309 160.306,284.976 158.5,285.5C 159.702,271.844 160.869,258.177 162,244.5C 162.773,233.408 162.106,222.408 160,211.5C 156.473,203.445 153.806,195.112 152,186.5C 150.064,176.582 152.064,167.582 158,159.5C 164.338,152.329 170.838,145.329 177.5,138.5C 179.836,136.996 181.669,134.996 183,132.5C 184.224,128.977 185.724,125.644 187.5,122.5C 192.09,120.392 195.09,121.725 196.5,126.5 Z"/></g>
<g><path style="opacity:1" fill="#ad3a3a" d="M 188.5,140.5 C 189.649,140.791 190.316,141.624 190.5,143C 190.088,146.027 189.421,148.86 188.5,151.5C 186.114,150.627 184.114,149.127 182.5,147C 184.706,144.963 186.706,142.797 188.5,140.5 Z"/></g>
<g><path style="opacity:1" fill="#6c1f1f" d="M 200.5,144.5 C 199.92,148.81 199.586,153.143 199.5,157.5C 195.67,155.753 192.003,153.753 188.5,151.5C 189.421,148.86 190.088,146.027 190.5,143C 190.316,141.624 189.649,140.791 188.5,140.5C 189.504,139.317 190.338,137.984 191,136.5C 191.941,141.583 195.107,144.25 200.5,144.5 Z"/></g>
<g><path style="opacity:1" fill="#ae3b3b" d="M 200.5,144.5 C 200.833,144.5 201.167,144.5 201.5,144.5C 204.067,145.475 206.733,146.142 209.5,146.5C 208.976,151.263 208.976,155.93 209.5,160.5C 206.231,159.299 202.898,158.299 199.5,157.5C 199.586,153.143 199.92,148.81 200.5,144.5 Z"/></g>
<g><path style="opacity:1" fill="#6c2020" d="M 196.5,126.5 C 206.828,131.831 214.495,139.831 219.5,150.5C 219.5,153.833 219.5,157.167 219.5,160.5C 216.167,160.5 212.833,160.5 209.5,160.5C 208.976,155.93 208.976,151.263 209.5,146.5C 206.733,146.142 204.067,145.475 201.5,144.5C 201.632,141.111 201.799,137.777 202,134.5C 199.113,133.307 196.28,131.973 193.5,130.5C 194.098,129.205 194.598,127.872 195,126.5C 195.69,127.738 196.19,127.738 196.5,126.5 Z"/></g>
<g><path style="opacity:1" fill="#ae3d3d" d="M 243.5,147.5 C 247.431,154.526 245.765,158.526 238.5,159.5C 239.115,154.952 240.782,150.952 243.5,147.5 Z"/></g>
<g><path style="opacity:1" fill="#b2403f" d="M 219.5,150.5 C 222.167,153.5 224.833,156.5 227.5,159.5C 225.052,160.473 222.385,160.806 219.5,160.5C 219.5,157.167 219.5,153.833 219.5,150.5 Z"/></g>
<g><path style="opacity:1" fill="#501515" d="M 330.5,153.5 C 330.517,155.565 330.85,157.565 331.5,159.5C 330.542,159.047 329.708,158.381 329,157.5C 322.875,162.783 317.709,168.783 313.5,175.5C 311.477,176.521 309.477,176.188 307.5,174.5C 312.458,165.209 319.458,157.876 328.5,152.5C 329.416,152.543 330.083,152.876 330.5,153.5 Z"/></g>
<g><path style="opacity:1" fill="#0b0707" d="M 330.5,153.5 C 332.716,154.203 334.549,155.536 336,157.5C 338.054,160.047 339.887,162.714 341.5,165.5C 337.169,165.008 333.836,163.008 331.5,159.5C 330.85,157.565 330.517,155.565 330.5,153.5 Z"/></g>
<g><path style="opacity:1" fill="#ac3a3a" d="M 331.5,159.5 C 333.836,163.008 337.169,165.008 341.5,165.5C 342.833,166.167 343.833,167.167 344.5,168.5C 342.387,171.834 341.054,175.5 340.5,179.5C 337.822,175.988 334.655,172.988 331,170.5C 329.775,170.862 328.609,171.362 327.5,172C 325.302,175.023 322.969,177.856 320.5,180.5C 318.445,178.445 316.112,176.779 313.5,175.5C 317.709,168.783 322.875,162.783 329,157.5C 329.708,158.381 330.542,159.047 331.5,159.5 Z"/></g>
<g><path style="opacity:1" fill="#ac3a3a" d="M 256.5,161.5 C 258.175,163.002 260.008,164.335 262,165.5C 262.74,166.749 262.573,167.749 261.5,168.5C 259.703,169.73 257.703,170.396 255.5,170.5C 255.19,167.287 255.523,164.287 256.5,161.5 Z"/></g>
<g><path style="opacity:1" fill="#ad3a3a" d="M 243.5,164.5 C 245.265,167.123 245.932,170.123 245.5,173.5C 244.5,173.5 243.5,173.5 242.5,173.5C 242.726,170.751 242.393,168.084 241.5,165.5C 241.957,164.702 242.624,164.369 243.5,164.5 Z"/></g>
<g><path style="opacity:1" fill="#ae3a3a" d="M 173.5,166.5 C 174.136,169.106 174.136,171.606 173.5,174C 171.667,175.167 169.833,176.333 168,177.5C 166.871,175.859 165.371,174.859 163.5,174.5C 163.809,167.489 167.142,164.823 173.5,166.5 Z"/></g>
<g><path style="opacity:1" fill="#e5c4c4" d="M 366.5,196.5 C 365.71,197.401 364.71,198.068 363.5,198.5C 360.833,198.5 358.167,198.5 355.5,198.5C 349.364,193.034 344.364,186.701 340.5,179.5C 341.054,175.5 342.387,171.834 344.5,168.5C 352.414,165.53 359.247,167.197 365,173.5C 367.217,176.902 369.051,180.569 370.5,184.5C 370.084,188.841 368.751,192.841 366.5,196.5 Z"/></g>
<g><path style="opacity:1" fill="#712121" d="M 232.5,179.5 C 230.5,179.833 228.5,180.167 226.5,180.5C 226.5,176.833 226.5,173.167 226.5,169.5C 223.223,169.784 220.057,169.451 217,168.5C 216.501,172.152 216.335,175.818 216.5,179.5C 213.094,179.044 209.761,178.378 206.5,177.5C 206.789,173.894 206.456,170.394 205.5,167C 201.362,165.411 197.196,164.911 193,165.5C 187.678,160.924 181.512,158.091 174.5,157C 174.179,155.063 175.179,153.563 177.5,152.5C 194.685,164.469 213.685,169.469 234.5,167.5C 232.669,171.241 232.003,175.241 232.5,179.5 Z"/></g>
<g><path style="opacity:1" fill="#501616" d="M 340.5,179.5 C 344.364,186.701 349.364,193.034 355.5,198.5C 357.933,202.768 361.266,206.268 365.5,209C 368.071,210.454 370.738,211.62 373.5,212.5C 374.942,213.82 375.608,215.486 375.5,217.5C 364.963,216.32 356.63,211.32 350.5,202.5C 349.167,200.5 347.5,198.833 345.5,197.5C 343.066,193.618 340.399,189.952 337.5,186.5C 335.542,183.208 333.209,180.208 330.5,177.5C 327.667,181.167 324.833,184.833 322,188.5C 318.626,186.1 318.126,183.433 320.5,180.5C 322.969,177.856 325.302,175.023 327.5,172C 328.609,171.362 329.775,170.862 331,170.5C 334.655,172.988 337.822,175.988 340.5,179.5 Z"/></g>
<g><path style="opacity:1" fill="#681e1e" d="M 256.5,161.5 C 255.523,164.287 255.19,167.287 255.5,170.5C 257.703,170.396 259.703,169.73 261.5,168.5C 261.24,172.348 261.906,176.015 263.5,179.5C 266.232,177.454 269.232,176.62 272.5,177C 275.182,181.221 277.182,185.721 278.5,190.5C 278.038,192.757 277.038,194.757 275.5,196.5C 264.359,201.238 253.359,206.238 242.5,211.5C 243.469,203.252 243.802,194.918 243.5,186.5C 244.319,189.305 244.819,192.305 245,195.5C 245.414,195.043 245.914,194.709 246.5,194.5C 247.46,190.861 247.46,187.195 246.5,183.5C 249.836,183.533 253.003,182.866 256,181.5C 256.498,178.183 256.665,174.85 256.5,171.5C 252.779,171.911 249.112,172.578 245.5,173.5C 245.932,170.123 245.265,167.123 243.5,164.5C 246.758,163.079 249.258,160.746 251,157.5C 253.015,158.697 254.849,160.03 256.5,161.5 Z"/></g>
<g><path style="opacity:1" fill="#cb8888" d="M 82.5,177.5 C 82.1667,179.5 81.8333,181.5 81.5,183.5C 70.2599,182.362 61.0932,186.362 54,195.5C 49.8075,203.334 48.4741,211.667 50,220.5C 54.4155,228.333 59.0822,236 64,243.5C 70.4321,264.895 75.7654,286.562 80,308.5C 81.2106,305.241 83.0439,302.408 85.5,300C 89.4339,297.536 93.4339,295.369 97.5,293.5C 100.551,293.364 103.551,293.698 106.5,294.5C 124.055,291.909 141.388,288.909 158.5,285.5C 160.306,284.976 161.972,284.309 163.5,283.5C 171.042,283.041 178.375,282.041 185.5,280.5C 190.059,280.289 194.559,279.622 199,278.5C 211.685,278.429 222.185,283.096 230.5,292.5C 231.833,294.833 233.167,297.167 234.5,299.5C 232.901,299.232 231.568,299.566 230.5,300.5C 229.833,300.833 229.167,301.167 228.5,301.5C 217.506,282.313 204.339,280.647 189,296.5C 182.839,305.796 181.173,315.796 184,326.5C 189.989,333.14 194.989,340.473 199,348.5C 201.467,366.435 203.467,384.435 205,402.5C 207.609,417.388 215.775,421.555 229.5,415C 230.701,414.097 231.535,412.931 232,411.5C 232.459,407.661 232.959,403.828 233.5,400C 232.541,382.16 231.541,364.327 230.5,346.5C 232.5,346.5 234.5,346.5 236.5,346.5C 237.1,362.168 237.767,377.834 238.5,393.5C 238.333,399.5 238.167,405.5 238,411.5C 237.55,413.519 236.717,415.352 235.5,417C 250.797,419.462 266.131,419.962 281.5,418.5C 281.279,421.067 280.612,423.401 279.5,425.5C 267.481,425.786 255.314,425.12 243,423.5C 242.098,423.743 241.265,424.077 240.5,424.5C 236.678,423.623 232.678,422.956 228.5,422.5C 227.006,422.709 225.839,423.376 225,424.5C 219.315,422.906 213.482,422.24 207.5,422.5C 207.44,421.957 207.107,421.624 206.5,421.5C 199.238,422.772 191.905,423.606 184.5,424C 165.641,424.411 146.974,424.577 128.5,424.5C 121.73,423.243 115.063,421.577 108.5,419.5C 102.795,417.567 98.6283,413.9 96,408.5C 94.3501,401.933 93.3501,395.267 93,388.5C 92.6667,378.5 92.3333,368.5 92,358.5C 91.461,355.471 90.7943,352.471 90,349.5C 87.1739,343.178 83.8405,337.178 80,331.5C 73.2911,301.998 65.9578,272.664 58,243.5C 55.3847,239.217 52.3847,235.217 49,231.5C 40.0132,214.107 42.5132,198.607 56.5,185C 64.1401,178.953 72.8068,176.453 82.5,177.5 Z"/></g>
<g><path style="opacity:1" fill="#af3b3b" d="M 206.5,177.5 C 209.761,178.378 213.094,179.044 216.5,179.5C 216.5,181.5 216.5,183.5 216.5,185.5C 212.833,185.5 209.167,185.5 205.5,185.5C 205.833,182.833 206.167,180.167 206.5,177.5 Z"/></g>
<g><path style="opacity:1" fill="#f8e3e3" d="M 302.5,200.5 C 301.391,200.443 300.391,200.11 299.5,199.5C 298.793,197.866 297.627,196.532 296,195.5C 293.901,198.7 292.067,202.033 290.5,205.5C 275.557,215.647 260.557,225.813 245.5,236C 236.764,241.367 227.764,246.201 218.5,250.5C 217.85,250.804 217.183,251.137 216.5,251.5C 213.732,243.381 214.065,235.381 217.5,227.5C 225.659,224.055 233.992,220.889 242.5,218C 255.929,211.285 269.596,205.118 283.5,199.5C 283.358,197.11 283.858,194.777 285,192.5C 288.581,188.248 292.748,184.748 297.5,182C 306.651,177.169 313.484,179.336 318,188.5C 318.667,189.5 318.667,190.5 318,191.5C 316.708,189.751 315.542,187.918 314.5,186C 312.866,185.506 311.199,185.34 309.5,185.5C 309.264,188.226 310.097,190.559 312,192.5C 312.82,194.728 312.487,196.728 311,198.5C 310.261,194.938 308.761,191.772 306.5,189C 304.359,188.116 302.693,188.616 301.5,190.5C 302.923,192.843 303.923,195.343 304.5,198C 304.316,199.376 303.649,200.209 302.5,200.5 Z"/></g>
<g><path style="opacity:1" fill="#e4c1c1" d="M 307.5,174.5 C 309.477,176.188 311.477,176.521 313.5,175.5C 316.112,176.779 318.445,178.445 320.5,180.5C 318.126,183.433 318.626,186.1 322,188.5C 324.833,184.833 327.667,181.167 330.5,177.5C 333.209,180.208 335.542,183.208 337.5,186.5C 328.468,201.72 317.301,215.386 304,227.5C 300.838,235.777 300.672,244.11 303.5,252.5C 306.016,252.245 308.35,251.411 310.5,250C 313.984,245.549 317.817,241.382 322,237.5C 330.601,224.633 338.435,211.299 345.5,197.5C 347.5,198.833 349.167,200.5 350.5,202.5C 349.357,202.908 348.357,203.575 347.5,204.5C 339.511,223.664 328.177,240.497 313.5,255C 309.253,256.972 304.919,258.472 300.5,259.5C 299.227,257.287 298.227,254.954 297.5,252.5C 297.007,250.194 296.674,247.861 296.5,245.5C 294.995,237.358 296.328,229.692 300.5,222.5C 302.167,221.167 303.833,219.833 305.5,218.5C 314.81,209.357 322.81,199.19 329.5,188C 327.721,188.044 326.055,188.711 324.5,190C 323.839,193.137 322.505,195.97 320.5,198.5C 317.532,200.14 314.865,202.14 312.5,204.5C 310.898,202.926 308.898,202.259 306.5,202.5C 304.847,202.34 303.514,201.674 302.5,200.5C 303.649,200.209 304.316,199.376 304.5,198C 303.923,195.343 302.923,192.843 301.5,190.5C 302.693,188.616 304.359,188.116 306.5,189C 308.761,191.772 310.261,194.938 311,198.5C 312.487,196.728 312.82,194.728 312,192.5C 310.097,190.559 309.264,188.226 309.5,185.5C 311.199,185.34 312.866,185.506 314.5,186C 315.542,187.918 316.708,189.751 318,191.5C 318.667,190.5 318.667,189.5 318,188.5C 313.484,179.336 306.651,177.169 297.5,182C 292.748,184.748 288.581,188.248 285,192.5C 283.858,194.777 283.358,197.11 283.5,199.5C 269.596,205.118 255.929,211.285 242.5,218C 233.992,220.889 225.659,224.055 217.5,227.5C 217.655,222.154 220.321,219.154 225.5,218.5C 228.682,217.406 231.682,216.072 234.5,214.5C 237.38,214.06 240.046,213.06 242.5,211.5C 253.359,206.238 264.359,201.238 275.5,196.5C 277.038,194.757 278.038,192.757 278.5,190.5C 280.194,189.473 281.527,188.139 282.5,186.5C 289.111,178.884 297.444,174.884 307.5,174.5 Z"/></g>
<g><path style="opacity:1" fill="#ae3b3b" d="M 259.5,180.5 C 260.833,180.5 262.167,180.5 263.5,180.5C 263.443,182.884 263.777,185.218 264.5,187.5C 263.191,189.733 261.191,191.067 258.5,191.5C 257.035,187.549 257.368,183.882 259.5,180.5 Z"/></g>
<g><path style="opacity:1" fill="#e0a9a9" d="M 81.5,183.5 C 79.1912,196.931 76.3578,210.265 73,223.5C 72.3333,234.167 72.3333,244.833 73,255.5C 74.921,272.375 83.0876,285.042 97.5,293.5C 93.4339,295.369 89.4339,297.536 85.5,300C 83.0439,302.408 81.2106,305.241 80,308.5C 75.7654,286.562 70.4321,264.895 64,243.5C 59.0822,236 54.4155,228.333 50,220.5C 48.4741,211.667 49.8075,203.334 54,195.5C 61.0932,186.362 70.2599,182.362 81.5,183.5 Z"/></g>
<g><path style="opacity:1" fill="#ad3a3a" d="M 246.5,183.5 C 247.46,187.195 247.46,190.861 246.5,194.5C 245.914,194.709 245.414,195.043 245,195.5C 244.819,192.305 244.319,189.305 243.5,186.5C 243.5,185.5 243.5,184.5 243.5,183.5C 244.5,183.5 245.5,183.5 246.5,183.5 Z"/></g>
<g><path style="opacity:1" fill="#5e1919" d="M 226.5,180.5 C 226.215,182.288 226.548,183.955 227.5,185.5C 229.071,184.691 230.738,184.357 232.5,184.5C 232.5,182.833 232.5,181.167 232.5,179.5C 233.479,180.765 234.479,182.099 235.5,183.5C 233.688,186.899 233.021,190.566 233.5,194.5C 234.833,194.5 236.167,194.5 237.5,194.5C 237.31,197.855 236.31,200.855 234.5,203.5C 234.167,200.833 233.833,198.167 233.5,195.5C 231.167,195.5 228.833,195.5 226.5,195.5C 222.865,196.114 219.198,196.448 215.5,196.5C 216.244,192.881 216.577,189.215 216.5,185.5C 216.5,183.5 216.5,181.5 216.5,179.5C 216.335,175.818 216.501,172.152 217,168.5C 220.057,169.451 223.223,169.784 226.5,169.5C 226.5,173.167 226.5,176.833 226.5,180.5 Z"/></g>
<g><path style="opacity:1" fill="#ae3b3b" d="M 232.5,179.5 C 232.5,181.167 232.5,182.833 232.5,184.5C 230.738,184.357 229.071,184.691 227.5,185.5C 226.548,183.955 226.215,182.288 226.5,180.5C 228.5,180.167 230.5,179.833 232.5,179.5 Z"/></g>
<g><path style="opacity:1" fill="#f8e4e4" d="M 337.5,186.5 C 340.399,189.952 343.066,193.618 345.5,197.5C 338.435,211.299 330.601,224.633 322,237.5C 317.817,241.382 313.984,245.549 310.5,250C 308.35,251.411 306.016,252.245 303.5,252.5C 300.672,244.11 300.838,235.777 304,227.5C 317.301,215.386 328.468,201.72 337.5,186.5 Z"/></g>
<g><path style="opacity:1" fill="#732222" d="M 205.5,185.5 C 209.167,185.5 212.833,185.5 216.5,185.5C 216.577,189.215 216.244,192.881 215.5,196.5C 219.198,196.448 222.865,196.114 226.5,195.5C 226.5,198.5 226.5,201.5 226.5,204.5C 229.237,204.599 231.904,204.265 234.5,203.5C 234.5,207.167 234.5,210.833 234.5,214.5C 231.682,216.072 228.682,217.406 225.5,218.5C 225.5,213.833 225.5,209.167 225.5,204.5C 221.393,204.482 217.393,203.815 213.5,202.5C 211.1,196.7 208.433,191.034 205.5,185.5 Z"/></g>
<g><path style="opacity:1" fill="#af3b3b" d="M 226.5,195.5 C 228.833,195.5 231.167,195.5 233.5,195.5C 233.833,198.167 234.167,200.833 234.5,203.5C 231.904,204.265 229.237,204.599 226.5,204.5C 226.5,201.5 226.5,198.5 226.5,195.5 Z"/></g>
<g><path style="opacity:1" fill="#511515" d="M 299.5,199.5 C 297.637,202.211 296.971,205.044 297.5,208C 301.585,208.106 304.585,206.272 306.5,202.5C 308.898,202.259 310.898,202.926 312.5,204.5C 309.349,209.311 305.016,212.644 299.5,214.5C 298.558,214.392 297.725,214.059 297,213.5C 296.312,214.332 296.479,214.998 297.5,215.5C 300.035,216.9 302.702,217.9 305.5,218.5C 303.833,219.833 302.167,221.167 300.5,222.5C 298.669,221.948 297.003,221.948 295.5,222.5C 294.102,230.023 292.102,237.357 289.5,244.5C 288.782,246.137 288.616,247.803 289,249.5C 291.727,250.798 294.56,251.798 297.5,252.5C 298.227,254.954 299.227,257.287 300.5,259.5C 295.717,258.238 291.05,256.572 286.5,254.5C 284.55,257.515 282.884,260.681 281.5,264C 296.862,266.885 307.528,275.385 313.5,289.5C 313.5,291.167 313.5,292.833 313.5,294.5C 313.737,295.791 313.404,296.791 312.5,297.5C 312.631,296.761 312.464,296.094 312,295.5C 309.302,299.025 306.469,302.358 303.5,305.5C 300.751,294.665 295.417,285.332 287.5,277.5C 286.585,278.328 285.919,279.328 285.5,280.5C 292.009,288.516 296.675,297.516 299.5,307.5C 296.789,306.689 294.455,306.022 292.5,305.5C 290.363,298.392 287.029,291.892 282.5,286C 280.41,285.732 279.076,286.732 278.5,289C 283.801,293.137 287.801,298.304 290.5,304.5C 287.403,303.88 284.737,303.214 282.5,302.5C 280.933,299.717 279.1,297.051 277,294.5C 275.648,296.594 275.148,298.927 275.5,301.5C 276.791,301.263 277.791,301.596 278.5,302.5C 263.885,300.881 249.218,299.881 234.5,299.5C 233.167,297.167 231.833,294.833 230.5,292.5C 233.625,291.521 236.958,291.187 240.5,291.5C 240.5,289.833 240.5,288.167 240.5,286.5C 237.5,286.5 234.5,286.5 231.5,286.5C 231.616,283.14 231.949,279.807 232.5,276.5C 235.167,276.5 237.833,276.5 240.5,276.5C 240.277,266.143 240.943,255.81 242.5,245.5C 243.5,244.833 244.5,244.167 245.5,243.5C 247.388,245.988 248.055,248.988 247.5,252.5C 246.756,256.119 246.423,259.785 246.5,263.5C 246.5,267.167 246.5,270.833 246.5,274.5C 246.5,275.833 246.5,277.167 246.5,278.5C 246.17,285.2 246.503,291.866 247.5,298.5C 249.047,293.22 250.38,287.887 251.5,282.5C 252.737,281.035 253.737,279.368 254.5,277.5C 255.931,275.563 257.598,273.73 259.5,272C 257.893,272.019 256.226,272.185 254.5,272.5C 254.5,269.167 254.5,265.833 254.5,262.5C 254.5,262.167 254.5,261.833 254.5,261.5C 258.269,260.449 261.935,259.116 265.5,257.5C 270.102,255.395 271.769,251.728 270.5,246.5C 271.043,246.44 271.376,246.107 271.5,245.5C 268.635,243.257 267.302,240.257 267.5,236.5C 267.5,233.833 267.5,231.167 267.5,228.5C 270.756,225.766 274.423,223.6 278.5,222C 280.973,220.439 282.973,218.439 284.5,216C 286.577,215.808 288.577,215.308 290.5,214.5C 289.276,211.505 289.276,208.505 290.5,205.5C 292.067,202.033 293.901,198.7 296,195.5C 297.627,196.532 298.793,197.866 299.5,199.5 Z"/></g>
<g><path style="opacity:1" fill="#070606" d="M 366.5,196.5 C 388.216,224.563 409.216,253.23 429.5,282.5C 427.423,285.119 425.257,285.119 423,282.5C 407.303,260.651 391.47,238.985 375.5,217.5C 375.608,215.486 374.942,213.82 373.5,212.5C 373.509,210.692 373.009,209.025 372,207.5C 369.528,205.702 367.861,203.368 367,200.5C 365.698,199.915 364.531,199.249 363.5,198.5C 364.71,198.068 365.71,197.401 366.5,196.5 Z"/></g>
<g><path style="opacity:1" fill="#ad3a3a" d="M 355.5,198.5 C 358.167,198.5 360.833,198.5 363.5,198.5C 364.531,199.249 365.698,199.915 367,200.5C 367.861,203.368 369.528,205.702 372,207.5C 373.009,209.025 373.509,210.692 373.5,212.5C 370.738,211.62 368.071,210.454 365.5,209C 361.266,206.268 357.933,202.768 355.5,198.5 Z"/></g>
<g><path style="opacity:1" fill="#ad3a3a" d="M 299.5,199.5 C 300.391,200.11 301.391,200.443 302.5,200.5C 303.514,201.674 304.847,202.34 306.5,202.5C 304.585,206.272 301.585,208.106 297.5,208C 296.971,205.044 297.637,202.211 299.5,199.5 Z"/></g>
<g><path style="opacity:1" fill="#f8f6f6" d="M 305.5,218.5 C 302.702,217.9 300.035,216.9 297.5,215.5C 296.479,214.998 296.312,214.332 297,213.5C 297.725,214.059 298.558,214.392 299.5,214.5C 305.016,212.644 309.349,209.311 312.5,204.5C 314.865,202.14 317.532,200.14 320.5,198.5C 322.505,195.97 323.839,193.137 324.5,190C 326.055,188.711 327.721,188.044 329.5,188C 322.81,199.19 314.81,209.357 305.5,218.5 Z"/></g>
<g><path style="opacity:1" fill="#661c1c" d="M 173.5,166.5 C 178.539,166.687 182.872,168.52 186.5,172C 192.272,180.209 197.272,188.875 201.5,198C 199.167,200.333 196.833,202.667 194.5,205C 196.34,207.669 198.34,210.169 200.5,212.5C 202.332,211.752 203.999,210.752 205.5,209.5C 208.411,213.239 208.744,217.073 206.5,221C 208.914,231.064 206.914,231.898 200.5,223.5C 202.487,222.836 204.154,221.669 205.5,220C 204.025,217.691 202.358,215.524 200.5,213.5C 198.611,214.604 196.945,215.937 195.5,217.5C 197.252,219.246 198.585,221.246 199.5,223.5C 196.924,225.421 194.257,227.255 191.5,229C 193.298,231.966 195.631,234.466 198.5,236.5C 200.5,235.5 202.5,234.5 204.5,233.5C 205.661,237.795 205.828,242.129 205,246.5C 199.305,241.634 193.805,236.634 188.5,231.5C 188.511,229.983 189.177,228.816 190.5,228C 188.555,224.628 185.889,223.795 182.5,225.5C 179.45,223.451 177.117,220.784 175.5,217.5C 177.958,217.074 179.124,215.741 179,213.5C 177.5,211.333 176,209.167 174.5,207C 172.811,207.134 171.144,207.634 169.5,208.5C 162.608,197.885 160.608,186.552 163.5,174.5C 165.371,174.859 166.871,175.859 168,177.5C 169.833,176.333 171.667,175.167 173.5,174C 174.136,171.606 174.136,169.106 173.5,166.5 Z"/></g>
<g><path style="opacity:1" fill="#ad3a3a" d="M 187.5,197.5 C 190.506,198.639 192.506,200.806 193.5,204C 192.667,206.167 191.167,207.667 189,208.5C 186.693,206.561 184.86,204.228 183.5,201.5C 184.867,200.16 186.2,198.827 187.5,197.5 Z"/></g>
<g><path style="opacity:1" fill="#ab3939" d="M 178.5,182.5 C 184.753,186.157 184.587,189.157 178,191.5C 176.056,190.312 174.556,188.646 173.5,186.5C 175.419,185.388 177.086,184.054 178.5,182.5 Z"/></g>
<g><path style="opacity:1" fill="#e3bfbf" d="M 290.5,205.5 C 289.276,208.505 289.276,211.505 290.5,214.5C 288.577,215.308 286.577,215.808 284.5,216C 282.973,218.439 280.973,220.439 278.5,222C 274.423,223.6 270.756,225.766 267.5,228.5C 265.77,229.026 264.436,230.026 263.5,231.5C 257.148,235.007 251.148,239.007 245.5,243.5C 244.5,244.167 243.5,244.833 242.5,245.5C 239.794,245.688 237.461,246.688 235.5,248.5C 231.26,251.118 226.926,253.452 222.5,255.5C 221.508,255.328 220.842,255.662 220.5,256.5C 219.262,254.786 218.595,252.786 218.5,250.5C 227.764,246.201 236.764,241.367 245.5,236C 260.557,225.813 275.557,215.647 290.5,205.5 Z"/></g>
<g><path style="opacity:1" fill="#ac3a3a" d="M 175.5,217.5 C 172.759,215.025 170.759,212.025 169.5,208.5C 171.144,207.634 172.811,207.134 174.5,207C 176,209.167 177.5,211.333 179,213.5C 179.124,215.741 177.958,217.074 175.5,217.5 Z"/></g>
<g><path style="opacity:1" fill="#ab3939" d="M 200.5,223.5 C 200.167,223.5 199.833,223.5 199.5,223.5C 198.585,221.246 197.252,219.246 195.5,217.5C 196.945,215.937 198.611,214.604 200.5,213.5C 202.358,215.524 204.025,217.691 205.5,220C 204.154,221.669 202.487,222.836 200.5,223.5 Z"/></g>
<g><path style="opacity:1" fill="#ab3939" d="M 188.5,231.5 C 186.167,229.833 184.167,227.833 182.5,225.5C 185.889,223.795 188.555,224.628 190.5,228C 189.177,228.816 188.511,229.983 188.5,231.5 Z"/></g>
<g><path style="opacity:1" fill="#b03d3d" d="M 267.5,228.5 C 267.5,231.167 267.5,233.833 267.5,236.5C 266.417,236.539 265.417,236.873 264.5,237.5C 263.534,235.604 263.201,233.604 263.5,231.5C 264.436,230.026 265.77,229.026 267.5,228.5 Z"/></g>
<g><path style="opacity:1" fill="#762525" d="M 300.5,222.5 C 296.328,229.692 294.995,237.358 296.5,245.5C 294.194,245.007 291.861,244.674 289.5,244.5C 292.102,237.357 294.102,230.023 295.5,222.5C 297.003,221.948 298.669,221.948 300.5,222.5 Z"/></g>
<g><path style="opacity:1" fill="#ad3a3a" d="M 168.5,236.5 C 170.285,236.926 171.285,238.092 171.5,240C 170.784,242.792 170.451,245.626 170.5,248.5C 169.5,248.5 168.5,248.5 167.5,248.5C 167.307,244.434 167.64,240.434 168.5,236.5 Z"/></g>
<g><path style="opacity:1" fill="#681d1d" d="M 183.5,240.5 C 182.275,241.152 181.608,242.319 181.5,244C 181.083,246.498 180.749,248.998 180.5,251.5C 177.059,250.807 173.725,249.807 170.5,248.5C 170.451,245.626 170.784,242.792 171.5,240C 171.285,238.092 170.285,236.926 168.5,236.5C 167.903,232.168 167.737,227.835 168,223.5C 173.004,229.336 178.171,235.003 183.5,240.5 Z"/></g>
<g><path style="opacity:1" fill="#571717" d="M 264.5,248.5 C 264.5,248.833 264.5,249.167 264.5,249.5C 261.211,250.374 257.877,251.041 254.5,251.5C 253.599,248.128 253.599,244.795 254.5,241.5C 257.167,240.5 259.833,239.5 262.5,238.5C 264.183,241.602 264.849,244.936 264.5,248.5 Z"/></g>
<g><path style="opacity:1" fill="#ad3a3a" d="M 183.5,240.5 C 185.191,241.864 186.858,243.197 188.5,244.5C 188.5,247.167 188.5,249.833 188.5,252.5C 185.763,252.599 183.096,252.265 180.5,251.5C 180.749,248.998 181.083,246.498 181.5,244C 181.608,242.319 182.275,241.152 183.5,240.5 Z"/></g>
<g><path style="opacity:1" fill="#6e2020" d="M 263.5,231.5 C 263.201,233.604 263.534,235.604 264.5,237.5C 265.417,236.873 266.417,236.539 267.5,236.5C 267.302,240.257 268.635,243.257 271.5,245.5C 271.376,246.107 271.043,246.44 270.5,246.5C 268.5,247.167 266.5,247.833 264.5,248.5C 264.849,244.936 264.183,241.602 262.5,238.5C 259.833,239.5 257.167,240.5 254.5,241.5C 253.599,244.795 253.599,248.128 254.5,251.5C 257.877,251.041 261.211,250.374 264.5,249.5C 264.833,252.167 265.167,254.833 265.5,257.5C 261.935,259.116 258.269,260.449 254.5,261.5C 254.5,258.5 254.5,255.5 254.5,252.5C 252.167,252.5 249.833,252.5 247.5,252.5C 248.055,248.988 247.388,245.988 245.5,243.5C 251.148,239.007 257.148,235.007 263.5,231.5 Z"/></g>
<g><path style="opacity:1" fill="#ae3b3b" d="M 289.5,244.5 C 291.861,244.674 294.194,245.007 296.5,245.5C 296.674,247.861 297.007,250.194 297.5,252.5C 294.56,251.798 291.727,250.798 289,249.5C 288.616,247.803 288.782,246.137 289.5,244.5 Z"/></g>
<g><path style="opacity:1" fill="#ac3a3a" d="M 270.5,246.5 C 271.769,251.728 270.102,255.395 265.5,257.5C 265.167,254.833 264.833,252.167 264.5,249.5C 264.5,249.167 264.5,248.833 264.5,248.5C 266.5,247.833 268.5,247.167 270.5,246.5 Z"/></g>
<g><path style="opacity:1" fill="#b24040" d="M 235.5,248.5 C 235.5,250.5 235.5,252.5 235.5,254.5C 231.143,254.586 226.81,254.92 222.5,255.5C 226.926,253.452 231.26,251.118 235.5,248.5 Z"/></g>
<g><path style="opacity:1" fill="#f3f0f0" d="M 275.5,251.5 C 276.833,251.5 278.167,251.5 279.5,251.5C 276.408,264.424 275.075,264.424 275.5,251.5 Z"/></g>
<g><path style="opacity:1" fill="#af3b3b" d="M 247.5,252.5 C 249.833,252.5 252.167,252.5 254.5,252.5C 254.5,255.5 254.5,258.5 254.5,261.5C 254.5,261.833 254.5,262.167 254.5,262.5C 251.873,263.092 249.206,263.425 246.5,263.5C 246.423,259.785 246.756,256.119 247.5,252.5 Z"/></g>
<g><path style="opacity:1" fill="#661d1d" d="M 188.5,244.5 C 193.985,248.819 199.319,253.319 204.5,258C 206.473,258.495 208.473,258.662 210.5,258.5C 209.908,261.127 209.575,263.794 209.5,266.5C 212.833,266.5 216.167,266.5 219.5,266.5C 219.037,269.482 218.704,272.482 218.5,275.5C 223.203,275.437 227.87,275.771 232.5,276.5C 231.949,279.807 231.616,283.14 231.5,286.5C 234.5,286.5 237.5,286.5 240.5,286.5C 240.5,288.167 240.5,289.833 240.5,291.5C 236.958,291.187 233.625,291.521 230.5,292.5C 222.185,283.096 211.685,278.429 199,278.5C 194.559,279.622 190.059,280.289 185.5,280.5C 184.988,277.368 184.988,274.035 185.5,270.5C 187.801,264.579 185.801,261.913 179.5,262.5C 179.007,264.806 178.674,267.139 178.5,269.5C 177.949,272.807 177.616,276.14 177.5,279.5C 174.167,278.833 170.833,278.167 167.5,277.5C 167.515,271.383 168.182,265.383 169.5,259.5C 172.763,260.482 176.097,261.149 179.5,261.5C 179.833,258.167 180.167,254.833 180.5,251.5C 183.096,252.265 185.763,252.599 188.5,252.5C 188.5,249.833 188.5,247.167 188.5,244.5 Z"/></g>
<g><path style="opacity:1" fill="#641c1c" d="M 242.5,245.5 C 240.943,255.81 240.277,266.143 240.5,276.5C 237.833,276.5 235.167,276.5 232.5,276.5C 232.981,272.798 233.648,269.131 234.5,265.5C 234.167,265.167 233.833,264.833 233.5,264.5C 229.235,265.439 224.902,265.772 220.5,265.5C 220.762,262.252 220.762,259.252 220.5,256.5C 220.842,255.662 221.508,255.328 222.5,255.5C 226.81,254.92 231.143,254.586 235.5,254.5C 235.5,252.5 235.5,250.5 235.5,248.5C 237.461,246.688 239.794,245.688 242.5,245.5 Z"/></g>
<g><path style="opacity:1" fill="#af3b3b" d="M 185.5,270.5 C 183.139,270.326 180.806,269.993 178.5,269.5C 178.674,267.139 179.007,264.806 179.5,262.5C 185.801,261.913 187.801,264.579 185.5,270.5 Z"/></g>
<g><path style="opacity:1" fill="#6c1f1f" d="M 254.5,262.5 C 254.5,265.833 254.5,269.167 254.5,272.5C 256.226,272.185 257.893,272.019 259.5,272C 257.598,273.73 255.931,275.563 254.5,277.5C 254.5,276.167 254.5,274.833 254.5,273.5C 251.794,273.575 249.127,273.908 246.5,274.5C 246.5,270.833 246.5,267.167 246.5,263.5C 249.206,263.425 251.873,263.092 254.5,262.5 Z"/></g>
<g><path style="opacity:1" fill="#af3b3b" d="M 196.5,265.5 C 200.548,265.395 204.548,265.728 208.5,266.5C 208.5,268.833 208.5,271.167 208.5,273.5C 204.5,273.167 200.5,272.833 196.5,272.5C 196.5,270.167 196.5,267.833 196.5,265.5 Z"/></g>
<g><path style="opacity:1" fill="#af3b3b" d="M 232.5,276.5 C 227.87,275.771 223.203,275.437 218.5,275.5C 218.704,272.482 219.037,269.482 219.5,266.5C 219.5,265.833 219.833,265.5 220.5,265.5C 224.902,265.772 229.235,265.439 233.5,264.5C 233.833,264.833 234.167,265.167 234.5,265.5C 233.648,269.131 232.981,272.798 232.5,276.5 Z"/></g>
<g><path style="opacity:1" fill="#ad3a3a" d="M 268.5,270.5 C 269.978,270.238 271.311,270.571 272.5,271.5C 266.468,279.231 262.302,287.898 260,297.5C 258.599,299.192 256.766,299.859 254.5,299.5C 254.351,291.779 256.518,284.779 261,278.5C 263.705,275.964 266.205,273.297 268.5,270.5 Z"/></g>
<g><path style="opacity:1" fill="#a93939" d="M 282.5,270.5 C 283.675,270.281 284.675,270.614 285.5,271.5C 276.263,278.971 270.93,288.638 269.5,300.5C 268.167,300.5 266.833,300.5 265.5,300.5C 267.57,288.348 273.237,278.348 282.5,270.5 Z"/></g>
<g><path style="opacity:1" fill="#ad3a3a" d="M 254.5,277.5 C 253.737,279.368 252.737,281.035 251.5,282.5C 250.153,283.028 248.819,283.195 247.5,283C 248.553,281.251 248.22,279.751 246.5,278.5C 246.5,277.167 246.5,275.833 246.5,274.5C 249.127,273.908 251.794,273.575 254.5,273.5C 254.5,274.833 254.5,276.167 254.5,277.5 Z"/></g>
<g><path style="opacity:1" fill="#782424" d="M 169.5,259.5 C 168.182,265.383 167.515,271.383 167.5,277.5C 170.833,278.167 174.167,278.833 177.5,279.5C 177.616,276.14 177.949,272.807 178.5,269.5C 180.806,269.993 183.139,270.326 185.5,270.5C 184.988,274.035 184.988,277.368 185.5,280.5C 178.375,282.041 171.042,283.041 163.5,283.5C 164.498,276.19 165.498,268.857 166.5,261.5C 166.547,258.761 167.547,258.095 169.5,259.5 Z"/></g>
<g><path style="opacity:1" fill="#ab3939" d="M 303.5,305.5 C 302.733,306.172 302.066,307.005 301.5,308C 300.563,308.692 299.897,308.525 299.5,307.5C 296.675,297.516 292.009,288.516 285.5,280.5C 285.919,279.328 286.585,278.328 287.5,277.5C 295.417,285.332 300.751,294.665 303.5,305.5 Z"/></g>
<g><path style="opacity:1" fill="#752323" d="M 246.5,278.5 C 248.22,279.751 248.553,281.251 247.5,283C 248.819,283.195 250.153,283.028 251.5,282.5C 250.38,287.887 249.047,293.22 247.5,298.5C 246.503,291.866 246.17,285.2 246.5,278.5 Z"/></g>
<g><path style="opacity:1" fill="#a73838" d="M 291.5,274.5 C 292.721,273.535 294.054,273.702 295.5,275C 300.083,278.912 303.917,283.412 307,288.5C 307.667,291.167 307.667,293.833 307,296.5C 303.532,287.872 298.366,280.539 291.5,274.5 Z"/></g>
<g><path style="opacity:1" fill="#e1aaaa" d="M 228.5,301.5 C 229.12,316.641 229.786,331.641 230.5,346.5C 231.541,364.327 232.541,382.16 233.5,400C 232.959,403.828 232.459,407.661 232,411.5C 231.535,412.931 230.701,414.097 229.5,415C 215.775,421.555 207.609,417.388 205,402.5C 203.467,384.435 201.467,366.435 199,348.5C 194.989,340.473 189.989,333.14 184,326.5C 181.173,315.796 182.839,305.796 189,296.5C 204.339,280.647 217.506,282.313 228.5,301.5 Z"/></g>
<g><path style="opacity:1" fill="#e1aaaa" d="M 189.5,285.5 C 190.239,285.369 190.906,285.536 191.5,286C 177.318,299.216 173.818,314.716 181,332.5C 186.581,337.999 190.914,344.333 194,351.5C 195.777,367.815 197.444,384.148 199,400.5C 199.496,405.988 200.996,411.155 203.5,416C 198.563,417.085 193.563,417.752 188.5,418C 168.833,418.667 149.167,418.667 129.5,418C 120.592,417.686 112.259,415.352 104.5,411C 102.064,408.293 100.564,405.127 100,401.5C 99.0665,385.824 98.0665,370.157 97,354.5C 96.3333,351.833 95.6667,349.167 95,346.5C 90.5314,339.229 86.8647,331.562 84,323.5C 83.118,317.026 84.4514,311.026 88,305.5C 95.3916,300.605 103.558,297.772 112.5,297C 138.329,293.287 163.995,289.454 189.5,285.5 Z"/></g>
<g><path style="opacity:1" fill="#a73838" d="M 292.5,305.5 C 291.508,305.672 290.842,305.338 290.5,304.5C 287.801,298.304 283.801,293.137 278.5,289C 279.076,286.732 280.41,285.732 282.5,286C 287.029,291.892 290.363,298.392 292.5,305.5 Z"/></g>
<g><path style="opacity:1" fill="#cb8888" d="M 375.5,426.5 C 368.918,425.178 362.251,424.511 355.5,424.5C 351.083,424.347 346.416,424.347 341.5,424.5C 340.962,422.883 340.629,421.216 340.5,419.5C 345.759,419.231 350.926,418.565 356,417.5C 356.77,395.156 357.77,372.822 359,350.5C 360.101,333.881 363.768,317.881 370,302.5C 371.833,299.333 374.333,296.833 377.5,295C 367.835,295.11 358.169,295.61 348.5,296.5C 336.793,295.992 325.126,295.326 313.5,294.5C 313.5,292.833 313.5,291.167 313.5,289.5C 324.836,289.693 336.169,290.026 347.5,290.5C 361.49,289.445 375.49,288.945 389.5,289C 405.418,292.992 412.252,303.158 410,319.5C 407.774,328.391 403.108,335.724 396,341.5C 394.232,359.813 392.566,378.146 391,396.5C 389.882,403.873 388.549,411.206 387,418.5C 384.559,423.247 380.726,425.913 375.5,426.5 Z"/></g>
<g><path style="opacity:1" fill="#e0a9a9" d="M 313.5,294.5 C 325.126,295.326 336.793,295.992 348.5,296.5C 358.169,295.61 367.835,295.11 377.5,295C 374.333,296.833 371.833,299.333 370,302.5C 363.768,317.881 360.101,333.881 359,350.5C 357.77,372.822 356.77,395.156 356,417.5C 350.926,418.565 345.759,419.231 340.5,419.5C 337.507,408.195 334.507,396.862 331.5,385.5C 342.658,366.158 350.825,345.491 356,323.5C 357.982,314.314 355.149,307.147 347.5,302C 336.572,300.735 325.572,300.068 314.5,300C 313.244,299.583 312.577,298.75 312.5,297.5C 313.404,296.791 313.737,295.791 313.5,294.5 Z"/></g>
<g><path style="opacity:1" fill="#ab3939" d="M 282.5,302.5 C 281.167,302.5 279.833,302.5 278.5,302.5C 277.791,301.596 276.791,301.263 275.5,301.5C 275.148,298.927 275.648,296.594 277,294.5C 279.1,297.051 280.933,299.717 282.5,302.5 Z"/></g>
<g><path style="opacity:1" fill="#e1aaaa" d="M 386.5,295.5 C 395.453,294.953 401.286,298.953 404,307.5C 406.029,316.562 404.029,324.562 398,331.5C 395.348,334.008 392.681,336.342 390,338.5C 388.667,355.833 387.333,373.167 386,390.5C 385.087,399.645 383.42,408.645 381,417.5C 375,421.5 369,421.5 363,417.5C 362.241,414.374 361.741,411.207 361.5,408C 362.681,385.141 364.181,362.307 366,339.5C 367.156,326.876 370.489,314.876 376,303.5C 379.4,300.586 382.9,297.92 386.5,295.5 Z"/></g>
<g><path style="opacity:1" fill="#1d0707" d="M 312.5,297.5 C 312.577,298.75 313.244,299.583 314.5,300C 325.572,300.068 336.572,300.735 347.5,302C 355.149,307.147 357.982,314.314 356,323.5C 350.825,345.491 342.658,366.158 331.5,385.5C 334.507,396.862 337.507,408.195 340.5,419.5C 340.629,421.216 340.962,422.883 341.5,424.5C 342.12,428.264 343.12,431.931 344.5,435.5C 349.802,438.151 355.136,440.818 360.5,443.5C 360.833,443 361.167,442.5 361.5,442C 359.196,436.255 357.196,430.422 355.5,424.5C 362.251,424.511 368.918,425.178 375.5,426.5C 376.166,434.814 376.666,443.147 377,451.5C 380.499,453.248 383.832,455.248 387,457.5C 388.033,460.217 387.2,462.051 384.5,463C 352.476,463.108 320.476,463.941 288.5,465.5C 283.5,465.333 278.5,465.167 273.5,465C 273,464.5 272.5,464 272,463.5C 271.333,459.5 271.333,455.5 272,451.5C 274.405,442.786 276.905,434.12 279.5,425.5C 280.612,423.401 281.279,421.067 281.5,418.5C 285.702,407.582 290.369,396.748 295.5,386C 288.3,373.466 280.3,361.466 271.5,350C 259.959,347.984 248.293,346.817 236.5,346.5C 238.164,331.089 237.831,315.755 235.5,300.5C 233.833,300.5 232.167,300.5 230.5,300.5C 231.568,299.566 232.901,299.232 234.5,299.5C 249.218,299.881 263.885,300.881 278.5,302.5C 279.833,302.5 281.167,302.5 282.5,302.5C 284.737,303.214 287.403,303.88 290.5,304.5C 290.842,305.338 291.508,305.672 292.5,305.5C 294.455,306.022 296.789,306.689 299.5,307.5C 299.897,308.525 300.563,308.692 301.5,308C 302.066,307.005 302.733,306.172 303.5,305.5C 306.469,302.358 309.302,299.025 312,295.5C 312.464,296.094 312.631,296.761 312.5,297.5 Z"/></g>
<g><path style="opacity:1" fill="#080505" d="M 230.5,300.5 C 232.167,300.5 233.833,300.5 235.5,300.5C 237.831,315.755 238.164,331.089 236.5,346.5C 234.5,346.5 232.5,346.5 230.5,346.5C 229.786,331.641 229.12,316.641 228.5,301.5C 229.167,301.167 229.833,300.833 230.5,300.5 Z"/></g>
<g><path style="opacity:1" fill="#e1aaaa" d="M 236.5,346.5 C 248.293,346.817 259.959,347.984 271.5,350C 280.3,361.466 288.3,373.466 295.5,386C 290.369,396.748 285.702,407.582 281.5,418.5C 266.131,419.962 250.797,419.462 235.5,417C 236.717,415.352 237.55,413.519 238,411.5C 238.167,405.5 238.333,399.5 238.5,393.5C 237.767,377.834 237.1,362.168 236.5,346.5 Z"/></g>
<g><path style="opacity:1" fill="#f9f8f8" d="M 311.5,417.5 C 315.75,423.663 319.25,430.33 322,437.5C 323.833,441.833 325.667,446.167 327.5,450.5C 327.167,450.833 326.833,451.167 326.5,451.5C 318.567,447.035 310.567,442.869 302.5,439C 305.604,431.85 308.604,424.683 311.5,417.5 Z"/></g>
<g><path style="opacity:1" fill="#1e0909" d="M 108.5,419.5 C 115.063,421.577 121.73,423.243 128.5,424.5C 124.625,434.589 120.458,444.589 116,454.5C 114.611,456.227 112.944,457.561 111,458.5C 109.739,458.241 108.739,457.574 108,456.5C 105.901,444.051 106.068,431.717 108.5,419.5 Z"/></g>
<g><path style="opacity:1" fill="#1e0b0b" d="M 207.5,422.5 C 213.482,422.24 219.315,422.906 225,424.5C 225.839,423.376 227.006,422.709 228.5,422.5C 232.678,422.956 236.678,423.623 240.5,424.5C 239.549,425.919 239.216,427.585 239.5,429.5C 238.076,431.515 237.41,433.848 237.5,436.5C 236.63,440.981 235.297,445.314 233.5,449.5C 228.625,452.893 225.792,451.56 225,445.5C 223.87,450.78 222.87,456.113 222,461.5C 220.534,463.325 218.701,463.825 216.5,463C 211.376,450.001 208.376,436.501 207.5,422.5 Z"/></g>
<g><path style="opacity:1" fill="#f9f8f8" d="M 355.5,424.5 C 357.196,430.422 359.196,436.255 361.5,442C 361.167,442.5 360.833,443 360.5,443.5C 355.136,440.818 349.802,438.151 344.5,435.5C 343.12,431.931 342.12,428.264 341.5,424.5C 346.416,424.347 351.083,424.347 355.5,424.5 Z"/></g>
<g><path style="opacity:1" fill="#a09696" d="M 239.5,429.5 C 239.59,432.152 238.924,434.485 237.5,436.5C 237.41,433.848 238.076,431.515 239.5,429.5 Z"/></g>
</svg>
