<?xml version="1.0" encoding="UTF-8"?>
<!DOCTYPE svg PUBLIC "-//W3C//DTD SVG 1.1//EN" "http://www.w3.org/Graphics/SVG/1.1/DTD/svg11.dtd">
<svg xmlns="http://www.w3.org/2000/svg" version="1.1" width="759px" height="536px" style="shape-rendering:geometricPrecision; text-rendering:geometricPrecision; image-rendering:optimizeQuality; fill-rule:evenodd; clip-rule:evenodd" xmlns:xlink="http://www.w3.org/1999/xlink">
<g><path style="opacity:0.991" fill="#729a8e" d="M 340.5,40.5 C 377.666,38.2943 414.333,40.961 450.5,48.5C 472.928,54.4003 494.094,63.4003 514,75.5C 543.081,94.0584 572.581,112.058 602.5,129.5C 628.82,147.566 655.32,165.233 682,182.5C 694.843,189.171 708.01,195.171 721.5,200.5C 729.91,202.306 738.243,204.306 746.5,206.5C 745.717,313.165 744.051,419.832 741.5,526.5C 496.638,525.119 251.638,524.119 6.5,523.5C 8.50206,417.19 9.3354,310.856 9,204.5C 30.6539,199.609 51.1539,191.442 70.5,180C 98.9895,159.565 128.656,141.065 159.5,124.5C 191.096,103.078 223.596,83.0784 257,64.5C 282.404,51.6101 309.571,44.1101 338.5,42C 339.416,41.7216 340.082,41.2216 340.5,40.5 Z"/></g>
</svg>
