<?xml version="1.0" standalone="no"?>
<!DOCTYPE svg PUBLIC "-//W3C//DTD SVG 20010904//EN"
 "http://www.w3.org/TR/2001/REC-SVG-20010904/DTD/svg10.dtd">
<svg version="1.0" xmlns="http://www.w3.org/2000/svg"
 width="759.000000pt" height="536.000000pt" viewBox="0 0 759.000000 536.000000"
 preserveAspectRatio="xMidYMid meet">

<g transform="translate(0.000000,536.000000) scale(0.100000,-0.100000)"
fill="#000000" stroke="none">
<path d="M3440 4931 c-8 -4 -52 -11 -98 -14 -45 -4 -99 -11 -120 -16 -20 -5
-73 -17 -117 -27 -311 -65 -601 -206 -1145 -555 -224 -144 -478 -301 -565
-349 -84 -46 -190 -114 -405 -255 -302 -200 -455 -287 -595 -338 -92 -34 -177
-57 -208 -57 -13 0 -37 -5 -53 -10 l-29 -10 -3 -1533 c-1 -842 -5 -1553 -8
-1579 -4 -36 -2 -49 8 -53 14 -6 3203 -22 5954 -31 1188 -4 1333 -2 1344 11
13 16 15 78 40 1560 5 303 13 745 18 984 9 406 8 555 -3 608 -4 17 -15 22 -57
28 -123 16 -277 66 -420 137 -181 89 -266 142 -808 504 -107 72 -240 157 -295
189 -107 62 -375 227 -620 381 -132 82 -424 239 -480 257 -11 3 -38 13 -60 22
-87 35 -262 81 -380 101 -16 3 -48 9 -70 15 -84 20 -250 32 -525 35 -157 2
-292 0 -300 -5z"/>
</g>
</svg>
